<svg width="1753" height="1472" xmlns="http://www.w3.org/2000/svg" xmlns:xlink="http://www.w3.org/1999/xlink" xml:space="preserve" overflow="hidden"><g transform="translate(-784 -444)"><path d="M1256.5 878C1256.5 809.241 1312.24 753.5 1381 753.5 1449.76 753.5 1505.5 809.241 1505.5 878 1505.5 946.759 1449.76 1002.5 1381 1002.5 1312.24 1002.5 1256.5 946.759 1256.5 878Z" stroke="#FFFFFF" stroke-width="6.875" stroke-miterlimit="8" fill="#FFFFFF" fill-rule="evenodd"/><path d="M1256.5 1182C1256.5 1113.24 1312.24 1057.5 1381 1057.5 1449.76 1057.5 1505.5 1113.24 1505.5 1182 1505.5 1250.76 1449.76 1306.5 1381 1306.5 1312.24 1306.5 1256.5 1250.76 1256.5 1182Z" stroke="#FFFFFF" stroke-width="6.875" stroke-miterlimit="8" fill="#FFFFFF" fill-rule="evenodd"/><path d="M1256.5 1486C1256.5 1417.24 1312.24 1361.5 1381 1361.5 1449.76 1361.5 1505.5 1417.24 1505.5 1486 1505.5 1554.76 1449.76 1610.5 1381 1610.5 1312.24 1610.5 1256.5 1554.76 1256.5 1486Z" stroke="#FFFFFF" stroke-width="6.875" stroke-miterlimit="8" fill="#FFFFFF" fill-rule="evenodd"/><path d="M787.5 876C787.5 807.241 843.241 751.5 912 751.5 980.759 751.5 1036.5 807.241 1036.5 876 1036.5 944.76 980.759 1000.5 912 1000.5 843.241 1000.5 787.5 944.76 787.5 876Z" stroke="#FFFFFF" stroke-width="6.875" stroke-miterlimit="8" fill="#FFFFFF" fill-rule="evenodd"/><path d="M787.5 1180C787.5 1111.24 843.241 1055.5 912 1055.5 980.759 1055.5 1036.5 1111.24 1036.5 1180 1036.5 1248.76 980.759 1304.5 912 1304.5 843.241 1304.5 787.5 1248.76 787.5 1180Z" stroke="#FFFFFF" stroke-width="6.875" stroke-miterlimit="8" fill="#FFFFFF" fill-rule="evenodd"/><path d="M787.5 1484C787.5 1415.24 843.241 1359.5 912 1359.5 980.759 1359.5 1036.5 1415.24 1036.5 1484 1036.5 1552.76 980.759 1608.5 912 1608.5 843.241 1608.5 787.5 1552.76 787.5 1484Z" stroke="#FFFFFF" stroke-width="6.875" stroke-miterlimit="8" fill="#FFFFFF" fill-rule="evenodd"/><path d="M787.5 572C787.5 503.241 843.241 447.5 912 447.5 980.759 447.5 1036.5 503.241 1036.5 572 1036.5 640.759 980.759 696.5 912 696.5 843.241 696.5 787.5 640.759 787.5 572Z" stroke="#FFFFFF" stroke-width="6.875" stroke-miterlimit="8" fill="#FFFFFF" fill-rule="evenodd"/><path d="M787.5 1788C787.5 1719.24 843.241 1663.5 912 1663.5 980.759 1663.5 1036.5 1719.24 1036.5 1788 1036.5 1856.76 980.759 1912.5 912 1912.5 843.241 1912.5 787.5 1856.76 787.5 1788Z" stroke="#FFFFFF" stroke-width="6.875" stroke-miterlimit="8" fill="#FFFFFF" fill-rule="evenodd"/><path d="M1036.5 571.5 1256.57 882.753" stroke="#FFFFFF" stroke-width="9.16667" stroke-miterlimit="8" fill="none" fill-rule="evenodd"/><path d="M1036.5 575.5 1256.57 1182.1" stroke="#FFFFFF" stroke-width="9.16667" stroke-miterlimit="8" fill="none" fill-rule="evenodd"/><path d="M1036.5 571.5 1256.57 1485.82" stroke="#FFFFFF" stroke-width="9.16667" stroke-miterlimit="8" fill="none" fill-rule="evenodd"/><path d="M1036.5 875.5 1256.57 877.267" stroke="#FFFFFF" stroke-width="9.16667" stroke-miterlimit="8" fill="none" fill-rule="evenodd"/><path d="M1036.5 875.5 1256.57 1181.45" stroke="#FFFFFF" stroke-width="9.16667" stroke-miterlimit="8" fill="none" fill-rule="evenodd"/><path d="M1036.5 875.5 1256.57 1485.63" stroke="#FFFFFF" stroke-width="9.16667" stroke-miterlimit="8" fill="none" fill-rule="evenodd"/><path d="M0 0 220.071 302.417" stroke="#FFFFFF" stroke-width="9.16667" stroke-miterlimit="8" fill="none" fill-rule="evenodd" transform="matrix(1 0 0 -1 1036.5 1179.92)"/><path d="M1036.5 1180.5 1256.57 1182.27" stroke="#FFFFFF" stroke-width="9.16667" stroke-miterlimit="8" fill="none" fill-rule="evenodd"/><path d="M1036.5 1180.5 1256.57 1486.45" stroke="#FFFFFF" stroke-width="9.16667" stroke-miterlimit="8" fill="none" fill-rule="evenodd"/><path d="M0 0 220.071 606.601" stroke="#FFFFFF" stroke-width="9.16667" stroke-miterlimit="8" fill="none" fill-rule="evenodd" transform="matrix(1 0 0 -1 1036.5 1484.1)"/><path d="M0 0 220.071 302.417" stroke="#FFFFFF" stroke-width="9.16667" stroke-miterlimit="8" fill="none" fill-rule="evenodd" transform="matrix(1 0 0 -1 1036.5 1483.92)"/><path d="M1036.5 1484.5 1256.57 1486.27" stroke="#FFFFFF" stroke-width="9.16667" stroke-miterlimit="8" fill="none" fill-rule="evenodd"/><path d="M0 0 220.071 916.086" stroke="#FFFFFF" stroke-width="9.16667" stroke-miterlimit="8" fill="none" fill-rule="evenodd" transform="matrix(1 0 0 -1 1036.5 1788.59)"/><path d="M0 0 220.071 606.601" stroke="#FFFFFF" stroke-width="9.16667" stroke-miterlimit="8" fill="none" fill-rule="evenodd" transform="matrix(1 0 0 -1 1036.5 1788.1)"/><path d="M0 0 220.071 302.417" stroke="#FFFFFF" stroke-width="9.16667" stroke-miterlimit="8" fill="none" fill-rule="evenodd" transform="matrix(1 0 0 -1 1036.5 1787.92)"/><text fill="#FFFFFF" font-family="Righteous,Righteous_MSFontService,sans-serif" font-weight="700" font-size="165" transform="matrix(1 0 0 1 1586.71 934)">Human</text><text fill="#FFFFFF" font-family="Righteous,Righteous_MSFontService,sans-serif" font-weight="700" font-size="165" transform="matrix(1 0 0 1 1586.71 1238)">Robot</text><text fill="#FFFFFF" font-family="Righteous,Righteous_MSFontService,sans-serif" font-weight="700" font-size="165" transform="matrix(1 0 0 1 1586.71 1542)">Ellie</text></g></svg>